# AST/ASF file generated using VICON BodyLanguage
# -----------------------------------------------
:version 1.10
:name VICON
:units
  mass 1.0
  length 0.45
  angle deg
:documentation
   .ast/.asf automatically generated from VICON data using
   VICON BodyBuilder and BodyLanguage model FoxedUp or BRILLIANT.MOD
:root
   order TX TY TZ RX RY RZ
   axis XYZ
   position 0 0 0  
   orientation 0 0 0 
:bonedata
  begin
     id 1 
     name lhipjoint
     direction 0.570549 -0.739093 0.358072 
     length 2.41801 
     axis 0 0 0  XYZ
  end
  begin
     id 2 
     name lfemur
     direction 0.34202 -0.939693 0  
     length 7.44434  
     axis 0 0 20  XYZ
    dof rx ry rz
    limits (-160.0 20.0)
           (-70.0 70.0)
           (-60.0 70.0)
  end
  begin
     id 3 
     name ltibia
     direction 0.34202 -0.939693 0   
     length 7.60047   
     axis 0 0 20   XYZ
    dof rx
    limits (-10.0 170.0)
  end
  begin
     id 4 
     name lfoot
     direction 0.0909041 -0.249757 0.964032   
     length 2.03437   
     axis -90 7.62852e-016 20   XYZ
    dof rx rz
    limits (-45.0 90.0)
           (-70.0 20.0)
  end
  begin
     id 5 
     name ltoes
     direction 1.53547e-011 -4.2174e-011 1   
     length 1.02054   
     axis -90 7.62852e-016 20   XYZ
    dof rx
    limits (-90.0 20.0)
  end
  begin
     id 6 
     name rhipjoint
     direction -0.558096 -0.746754 0.361784   
     length 2.3932  
     axis 0 0 0  XYZ 
  end
  begin
     id 7 
     name rfemur
     direction -0.34202 -0.939693 0   
     length 7.3886   
     axis 0 0 -20   XYZ
    dof rx ry rz
    limits (-160.0 20.0)
           (-70.0 70.0)
           (-70.0 60.0)
  end
  begin
     id 8 
     name rtibia
     direction -0.34202 -0.939693 0   
     length 7.4839   
     axis 0 0 -20   XYZ
    dof rx
    limits (-10.0 170.0)
 end
 begin
     id 9 
     name rfoot
     direction -0.114619 -0.314914 0.942174   
     length 2.25127  
     axis -90 -7.62852e-016 -20   XYZ
    dof rx rz
    limits (-45.0 90.0)
           (-20.0 70.0)
  end
  begin
     id 10 
     name rtoes
     direction -1.53518e-011 -4.21881e-011 1   
     length 1.11821   
     axis -90 -7.62852e-016 -20   XYZ
    dof rx
    limits (-90.0 20.0)
  end
  begin
     id 11 
     name lowerback
     direction -0.00902269 0.996426 -0.0839821   
     length 2.25052   
     axis 0 0 0   XYZ
    dof rx ry rz
    limits (-20.0 45.0)
           (-30.0 30.0)
           (-30.0 30.0)
  end
  begin
     id 12 
     name upperback
     direction 0.0370973 0.999169 -0.0168941   
     length 2.24876   
     axis 0 0 0   XYZ
    dof rx ry rz
    limits (-20.0 45.0)
           (-30.0 30.0)
           (-30.0 30.0)
  end
  begin
     id 13 
     name thorax
     direction 0.0402726 0.998931 0.0227027   
     length 2.26408   
     axis 0 0 0   XYZ
    dof rx ry rz
    limits (-20.0 45.0)
           (-30.0 30.0)
           (-30.0 30.0)
  end
  begin
     id 14 
     name lowerneck
     direction -0.0733697 0.98508 0.155675   
     length 1.58204   
     axis 0 0 0   XYZ
    dof rx ry rz
    limits (-20.0 45.0)
           (-30.0 30.0)
           (-30.0 30.0)
  end
  begin
     id 15 
     name upperneck
     direction 0.0426554 0.993501 -0.105526   
     length 1.61222   
     axis 0 0 0   XYZ
    dof rx ry rz
    limits (-20.0 45.0)
           (-30.0 30.0)
           (-30.0 30.0)
  end
  begin
     id 16
     name head
     direction 0.020792 0.998384 -0.0528868  
     length 1.61527  
     axis 0 0 0   XYZ
    dof rx ry rz
    limits (-20.0 45.0)
           (-30.0 30.0)
           (-30.0 30.0)
  end
  begin
     id 17 
     name lclavicle
     direction 0.967109 0.155462 -0.201325  
     length 3.59357  
     axis 0 0 0   XYZ
    dof ry rz
    limits (-20.0 10.0)
           (0.0 20.0)
  end
  begin
     id 18 
     name lhumerus
     direction 1 -4.48968e-011 2.38195e-027   
     length 5.38154   
     axis 180 -30 -90   XYZ
    dof rx ry rz
    limits (-60.0 90.0)
           (-90.0 90.0)
           (-90.0 90.0)
  end
  begin
     id 19
     name lradius
     direction 1 -4.48961e-011 4.85371e-027   
     length 3.33312   
     axis 180 -30 -90   XYZ
    dof rx
    limits (-10.0 170.0)
  end
  begin
     id 20
     name lwrist
     direction 1 -4.48961e-011 4.76515e-027   
     length 1.66656   
     axis -3.27502e-015 90 90   XYZ
    dof ry
    limits (-180.0 0.0)
 end
  begin
     id 21 
     name lhand
     direction 1 -4.48951e-011 9.53074e-027   
     length 0.710789   
     axis -6.08098e-015 90 90   XYZ
    dof rx rz
    limits (-90.0 90.0)
           (-45.0 45.0)
  end
  begin
     id 22 
     name lfingers
     direction 1 -4.48953e-011 1.90613e-026   
     length 0.573057   
     axis -1.21619e-014 90 90   XYZ
    dof rx
    limits (0.0 90.0)
  end
  begin
     id 23
     name lthumb
     direction 0.707107 -6.34973e-011 0.707107   
     length 0.822798   
     axis -90 45 -9.86923e-015   XYZ
    dof rx rz
    limits (-45.0 45.0)
           (-45.0 45.0)
  end
  begin
     id 24 
     name rclavicle
     direction -0.9585 0.265289 -0.104398   
     length 3.42039  
     axis 0 0 0   XYZ 
    dof ry rz
    limits (-10.0 20.0)
           (-20.0 0.0)
  end
  begin
     id 25 
     name rhumerus
     direction -1 -4.48977e-011 2.21478e-027  
     length 5.16954   
     axis 180 30 90   XYZ
    dof rx ry rz
    limits (-90.0 60.0)
           (-90.0 90.0)
           (-90.0 90.0)
  end
  begin
     id 26 
     name rradius
     direction -1 -4.48967e-011 5.63677e-027   
     length 3.38287   
     axis 180 30 90   XYZ
    dof rx
    limits (-10.0 170.0)
  end
  begin
     id 27 
     name rwrist
     direction -1 -4.48967e-011 4.76501e-027   
     length 1.69144   
     axis -3.27502e-015 -90 -90   XYZ
    dof ry
    limits (-180.0 0.0)
  end
  begin
     id 28
     name rhand
     direction -1 -4.48902e-011 9.53292e-027   
     length 0.817967   
     axis -6.08098e-015 -90 -90   XYZ
    dof rx rz
    limits (-90.0 90.0)
           (-45.0 45.0)
  end
  begin
     id 29
     name rfingers
     direction -1 -4.49012e-011 1.90561e-026   
     length 0.659466   
     axis -1.21619e-014 -90 -90   XYZ
    dof rx
    limits (0.0 90.0)
  end
  begin
     id 30
     name rthumb
     direction -0.707107 -6.34944e-011 0.707107   
     length 0.946865   
     axis -90 -45 9.86923e-015   XYZ
    dof rx rz
    limits (-45.0 45.0)
           (-45.0 45.0)
  end
:hierarchy
  begin
    root lhipjoint rhipjoint lowerback
    lhipjoint lfemur
    lfemur ltibia
    ltibia lfoot
    lfoot ltoes
    rhipjoint rfemur
    rfemur rtibia
    rtibia rfoot
    rfoot rtoes
    lowerback upperback
    upperback thorax
    thorax lowerneck lclavicle rclavicle
    lowerneck upperneck
    upperneck head
    lclavicle lhumerus
    lhumerus lradius
    lradius lwrist
    lwrist lhand lthumb
    lhand lfingers
    rclavicle rhumerus
    rhumerus rradius
    rradius rwrist
    rwrist rhand rthumb
    rhand rfingers
  end

#!OML:ASF F:\twosubjects\two\wednesday\Session 1\Justin1.ASF
:FULLY-SPECIFIED
:DEGREES
82
root 2.70505 17.2715 -3.54601 -2.75713 -0.506666 -3.70055
lowerback 2.7792 -1.46558 3.40892
upperback 1.2525 -1.85071 3.7048
thorax -0.256528 -0.923685 1.94847
lowerneck -15.5342 -1.5024 -8.67408
upperneck 17.858 -0.960379 4.8917
head 8.16751 -0.554192 2.96239
rclavicle 9.19379e-015 2.94201e-014
rhumerus -45.1037 -22.7079 -71.3563
rradius 20.7492
rwrist -6.72369
rhand -11.3975 14.3802
rfingers 7.12502
rthumb 14.6376 -15.0832
lclavicle 9.19379e-015 2.94201e-014
lhumerus 1.25288 6.06107 85.7345
lradius 33.2193
lwrist 5.9545
lhand 4.3759 39.3568
lfingers 7.12502
lthumb 29.7745 66.9847
rfemur -14.283 -3.85252 31.2776
rtibia 33.9074
rfoot -14.2086 4.26208
rtoes 13.5693
lfemur -23.1541 4.62229 -10.8847
ltibia 54.8485
lfoot -21.3549 -5.34207
ltoes -25.3755
83
root 2.68172 17.2686 -3.42019 -2.64245 -1.04986 -3.95988
lowerback 3.01125 -1.28813 3.35974
upperback 1.07376 -1.59034 4.04522
thorax -0.561309 -0.797432 2.32809
lowerneck -15.3514 -1.55405 -9.31257
upperneck 17.8512 -0.908773 4.96942
head 8.13414 -0.567339 3.0995
rclavicle -5.76476e-015 4.77083e-015
rhumerus -46.0978 -23.1198 -69.7593
rradius 20.2622
rwrist -5.45903
rhand -11.1263 14.8262
rfingers 7.12502
rthumb 14.8988 -14.618
lclavicle -5.76476e-015 4.77083e-015
lhumerus 2.29302 5.99264 85.4597
lradius 34.0711
lwrist 6.64245
lhand 4.86298 39.8648
lfingers 7.12502
lthumb 30.2393 67.4085
rfemur -13.8514 -2.9919 31.7002
rtibia 33.8263
rfoot -14.4832 3.81433
rtoes 15.7527
lfemur -24.5631 4.99832 -10.4222
ltibia 53.6176
lfoot -21.5773 -5.05195
ltoes -24.8259
84
root 2.67389 17.2768 -3.30478 -2.65422 -1.55237 -4.54977
lowerback 3.5534 -1.3556 3.82616
upperback 0.847764 -1.61423 4.30437
thorax -1.10217 -0.81446 2.35512
lowerneck -15.6908 -1.36629 -9.07333
upperneck 18.4845 -0.622948 4.67192
head 8.38431 -0.454362 3.00327
rclavicle 1.37534e-014 -5.64548e-014
rhumerus -46.9647 -23.0259 -68.7909
rradius 19.7987
rwrist -4.27653
rhand -11.0834 15.0766
rfingers 7.12502
rthumb 14.9402 -14.3646
lclavicle 1.37534e-014 -5.64548e-014
lhumerus 3.01892 6.53659 84.6307
lradius 35.0512
lwrist 6.81433
lhand 5.78404 40.8292
lfingers 7.12502
lthumb 31.1175 68.2082
rfemur -13.1226 -2.34256 32.4229
rtibia 33.3942
rfoot -14.6343 3.45973
rtoes 16.2319
lfemur -25.7699 5.19037 -9.57074
ltibia 52.3754
lfoot -21.6528 -5.09774
ltoes -23.8782
85
root 2.68046 17.3012 -3.17818 -2.72974 -1.62731 -4.51651
lowerback 3.72934 -1.59154 3.89591
upperback 0.858214 -1.91555 4.22637
thorax -1.19102 -0.965883 2.25482
lowerneck -15.4343 -0.7846 -9.07597
upperneck 18.3502 0.00422851 5.39922
head 8.23963 -0.0830576 3.31961
rclavicle 1.69091e-014 -1.03368e-014
rhumerus -47.4601 -22.9516 -68.2753
rradius 19.5741
rwrist -3.5193
rhand -10.9877 14.4168
rfingers 7.12502
rthumb 15.0323 -15.0175
lclavicle 1.69091e-014 -1.03368e-014
lhumerus 4.09159 7.08006 83.5488
lradius 35.7075
lwrist 7.42657
lhand 5.42077 40.241
lfingers 7.12502
lthumb 30.7712 67.6858
rfemur -12.2191 -2.49361 32.3075
rtibia 32.791
rfoot -14.9261 3.67878
rtoes 16.3643
lfemur -26.802 4.79828 -9.57671
ltibia 50.9872
lfoot -22.0363 -4.61172
ltoes -24.2843
86
root 2.67867 17.3182 -3.05671 -2.61701 -1.75836 -4.82151
lowerback 3.63789 -1.62887 4.3027
upperback 1.03946 -1.96692 4.27226
thorax -0.964354 -0.989208 2.07124
lowerneck -15.9343 -0.61112 -9.313
upperneck 18.3553 0.23583 5.94703
head 8.30826 0.0716034 3.57698
rclavicle 1.30949e-014 -5.56597e-015
rhumerus -47.6288 -23.3486 -67.6273
rradius 19.372
rwrist -3.0648
rhand -10.7087 13.9818
rfingers 7.12502
rthumb 15.3011 -15.4322
lclavicle 1.30949e-014 -5.56597e-015
lhumerus 5.73856 6.96589 82.7362
lradius 36.1382
lwrist 8.73892
lhand 4.65189 39.3124
lfingers 7.12502
lthumb 30.0379 66.8928
rfemur -11.5156 -2.23709 32.6321
rtibia 32.1652
rfoot -15.1817 3.6727
rtoes 18.0895
lfemur -28.0514 4.52467 -9.15062
ltibia 49.4683
lfoot -22.2169 -4.22801
ltoes -22.6953
87
root 2.67865 17.3267 -2.93537 -2.62438 -1.92858 -4.83389
lowerback 3.75093 -1.69073 4.40313
upperback 1.26201 -2.05122 4.25726
thorax -0.801871 -1.02844 2.00287
lowerneck -16.8362 -0.667033 -9.00425
upperneck 18.5855 0.285379 5.36714
head 8.54828 0.0613168 3.34656
rclavicle -5.41688e-015 -2.46493e-014
rhumerus -47.625 -23.4325 -67.3286
rradius 19.3137
rwrist -2.89746
rhand -10.7707 13.6491
rfingers 7.12502
rthumb 15.2414 -15.7694
lclavicle -5.41688e-015 -2.46493e-014
lhumerus 7.37096 6.93522 81.8802
lradius 36.6844
lwrist 9.995
lhand 4.6344 39.4649
lfingers 7.12502
lthumb 30.0212 67.0483
rfemur -10.652 -2.04171 32.6562
rtibia 31.5098
rfoot -15.2755 3.5505
rtoes 18.3522
lfemur -29.0505 4.47503 -9.1359
ltibia 47.7861
lfoot -22.6702 -3.06888
ltoes -21.9696
88
root 2.67651 17.3406 -2.80139 -2.68814 -2.24337 -4.48212
lowerback 4.02853 -1.80066 3.96711
upperback 1.18063 -2.19041 4.20571
thorax -1.02681 -1.10096 2.21061
lowerneck -17.0523 -0.598253 -7.97107
upperneck 18.8369 0.475857 3.74386
head 8.67149 0.0481219 2.64792
rclavicle 1.98785e-016 3.97569e-015
rhumerus -48.18 -23.2104 -66.7011
rradius 19.2178
rwrist -2.51174
rhand -10.7909 13.4027
rfingers 7.12502
rthumb 15.2219 -16.0173
lclavicle 1.98785e-016 3.97569e-015
lhumerus 8.26961 6.91468 80.6771
lradius 37.2103
lwrist 11.4499
lhand 4.74084 40.1372
lfingers 7.12502
lthumb 30.1227 67.7022
rfemur -9.63167 -1.87477 32.2729
rtibia 30.7298
rfoot -15.3664 3.58386
rtoes 17.8247
lfemur -29.8652 4.52651 -9.57222
ltibia 46.0587
lfoot -22.9739 -1.01846
ltoes -25.6771
89
root 2.67542 17.3634 -2.66297 -2.73299 -2.80673 -4.63876
lowerback 4.16578 -1.75337 4.17587
upperback 1.06743 -2.10203 4.23975
thorax -1.22712 -1.05946 2.13253
lowerneck -15.5817 -0.403233 -8.70748
upperneck 17.7873 0.625828 4.60188
head 8.03591 0.16795 3.04712
rclavicle -5.96354e-016 7.95139e-016
rhumerus -49.1156 -23.5657 -65.4543
rradius 19.026
rwrist -1.75347
rhand -10.4815 13.8384
rfingers 7.12502
rthumb 15.5199 -15.5587
lclavicle -5.96354e-016 7.95139e-016
lhumerus 9.024 6.9025 79.64
lradius 37.7603
lwrist 12.4934
lhand 4.54169 40.5307
lfingers 7.12502
lthumb 29.9327 68.1302
rfemur -8.56307 -1.61768 32.4378
rtibia 29.8673
rfoot -15.4373 3.88913
rtoes 18.3217
lfemur -30.6677 4.76845 -9.33602
ltibia 44.369
lfoot -22.8209 0.37095
ltoes -27.597
90
root 2.67944 17.3854 -2.52758 -2.79168 -3.21359 -5.06691
lowerback 4.24677 -1.72009 4.79527
upperback 1.06785 -2.02417 4.28121
thorax -1.29194 -1.02235 1.82946
lowerneck -15.1743 -0.268142 -8.79541
upperneck 17.4474 0.733491 4.92302
head 7.83887 0.248688 3.171
rclavicle 9.69075e-015 -1.27222e-014
rhumerus -49.8448 -23.9936 -64.4807
rradius 19.0138
rwrist -1.34368
rhand -10.5298 14.1871
rfingers 7.12502
rthumb 15.4734 -15.2136
lclavicle 9.69075e-015 -1.27222e-014
lhumerus 9.91238 7.16549 78.8598
lradius 38.4189
lwrist 12.7629
lhand 4.46144 40.4971
lfingers 7.12502
lthumb 29.8561 68.1104
rfemur -7.44376 -1.64318 32.8542
rtibia 28.9088
rfoot -15.3517 4.29903
rtoes 18.7909
lfemur -31.4679 4.93042 -8.81235
ltibia 42.7317
lfoot -22.6426 1.17885
ltoes -26.8865
